<svg width="169" height="128" viewBox="0 0 169 128" fill="none" xmlns="http://www.w3.org/2000/svg">
<path d="M64.0001 25.6C57.7138 25.6 52.6223 30.6916 52.6223 36.9778C52.6223 39.5093 53.4472 41.8418 54.8409 43.7476C49.2943 46.9333 45.5112 52.8782 45.5112 59.7333C45.5112 65.5076 48.1849 70.656 52.3663 74.0409C43.8329 77.056 31.2889 89.8276 31.2889 112.356H96.7112C96.7112 89.8276 84.1672 77.056 75.6338 74.0409C79.8152 70.656 82.4889 65.5076 82.4889 59.7333C82.4889 52.8782 78.7058 46.9333 73.1592 43.7476C74.5529 41.8418 75.3778 39.5093 75.3778 36.9778C75.3778 30.6916 70.2863 25.6 64.0001 25.6Z" fill="black" stroke="white" stroke-linecap="round"/>
<path d="M100.711 26C94.4249 26 89.3333 31.0916 89.3333 37.3778C89.3333 39.9093 90.1582 42.2418 91.552 44.1476C86.0053 47.3333 82.2222 53.2782 82.2222 60.1333C82.2222 65.9076 84.896 71.056 89.0773 74.4409C80.544 77.456 68 90.2276 68 112.756H133.422C133.422 90.2276 120.878 77.456 112.345 74.4409C116.526 71.056 119.2 65.9076 119.2 60.1333C119.2 53.2782 115.417 47.3333 109.87 44.1476C111.264 42.2418 112.089 39.9093 112.089 37.3778C112.089 31.0916 106.997 26 100.711 26Z" fill="black" stroke="white" stroke-linecap="round"/>
</svg>
