<svg width="174" height="128" viewBox="0 0 174 128" fill="none" xmlns="http://www.w3.org/2000/svg">
<path d="M62.5777 28.4445C92.4444 31.2889 109.511 51.2 108.089 110.933H42.6666C42.6666 85.3333 71.1111 92.4445 65.4222 51.2" fill="white"/>
<path d="M62.5777 28.4445C92.4444 31.2889 109.511 51.2 108.089 110.933H42.6666C42.6666 85.3333 71.1111 92.4445 65.4222 51.2" stroke="black" stroke-width="4.26667" stroke-linecap="round" stroke-linejoin="round"/>
<path d="M68.2667 51.2C69.3475 59.4774 52.48 72.1636 45.5111 76.8C36.9778 82.4889 37.4898 89.1449 31.2889 88.1778C28.325 85.504 35.2995 79.5307 31.2889 79.6445C28.4444 79.6445 31.8293 83.1431 28.4444 85.3334C25.6 85.3334 17.0581 88.1778 17.0667 73.9556C17.0667 68.2667 34.1333 39.8222 34.1333 39.8222C34.1333 39.8222 39.5093 34.4178 39.8222 29.8667C37.7458 27.0393 38.4 24.1778 38.4 21.3334C41.2444 18.4889 46.9333 28.4445 46.9333 28.4445H52.6222C52.6222 28.4445 54.8409 22.7783 59.7333 19.9111C62.5778 19.9111 62.5778 28.4445 62.5778 28.4445" fill="white"/>
<path d="M68.2667 51.2C69.3475 59.4774 52.48 72.1636 45.5111 76.8C36.9778 82.4889 37.4898 89.1449 31.2889 88.1778C28.325 85.504 35.2995 79.5307 31.2889 79.6445C28.4444 79.6445 31.8293 83.1431 28.4444 85.3334C25.6 85.3334 17.0581 88.1778 17.0667 73.9556C17.0667 68.2667 34.1333 39.8222 34.1333 39.8222C34.1333 39.8222 39.5093 34.4178 39.8222 29.8667C37.7458 27.0393 38.4 24.1778 38.4 21.3334C41.2444 18.4889 46.9333 28.4445 46.9333 28.4445H52.6222C52.6222 28.4445 54.8409 22.7783 59.7333 19.9111C62.5778 19.9111 62.5778 28.4445 62.5778 28.4445" stroke="black" stroke-width="4.26667" stroke-linecap="round" stroke-linejoin="round"/>
<path d="M27.0222 72.5334C27.0222 72.9106 26.8723 73.2723 26.6056 73.539C26.3389 73.8057 25.9772 73.9556 25.6 73.9556C25.2228 73.9556 24.861 73.8057 24.5943 73.539C24.3276 73.2723 24.1777 72.9106 24.1777 72.5334C24.1777 72.1562 24.3276 71.7944 24.5943 71.5277C24.861 71.261 25.2228 71.1111 25.6 71.1111C25.9772 71.1111 26.3389 71.261 26.6056 71.5277C26.8723 71.7944 27.0222 72.1562 27.0222 72.5334Z" fill="black" stroke="black" stroke-width="4.26667" stroke-linejoin="round"/>
<path d="M43.3777 40.3911C43.5398 40.4841 43.6452 40.6718 43.6877 40.9435C43.7303 41.2153 43.7092 41.5657 43.6258 41.9748C43.5423 42.3839 43.398 42.8437 43.2012 43.3279C43.0044 43.8121 42.759 44.3113 42.4788 44.7969C42.1987 45.2825 41.8893 45.745 41.5685 46.1581C41.2476 46.5711 40.9215 46.9266 40.6088 47.2042C40.296 47.4819 40.0028 47.6762 39.7458 47.7761C39.4889 47.8761 39.2732 47.8797 39.1111 47.7867C38.949 47.6937 38.8436 47.506 38.8011 47.2343C38.7585 46.9626 38.7796 46.6122 38.863 46.203C38.9465 45.7939 39.0908 45.3341 39.2876 44.8499C39.4843 44.3657 39.7298 43.8666 40.01 43.381C40.2901 42.8954 40.5995 42.4328 40.9203 42.0198C41.2412 41.6067 41.5673 41.2512 41.88 40.9736C42.1927 40.696 42.486 40.5016 42.7429 40.4017C42.9999 40.3018 43.2156 40.2982 43.3777 40.3911Z" fill="black" stroke="black" stroke-width="4.26667" stroke-linejoin="round"/>
<path d="M108.578 28.4445C138.444 31.2889 155.511 51.2 154.089 110.933H88.6666C88.6666 85.3333 117.111 92.4445 111.422 51.2" fill="white"/>
<path d="M108.578 28.4445C138.444 31.2889 155.511 51.2 154.089 110.933H88.6666C88.6666 85.3333 117.111 92.4445 111.422 51.2" stroke="black" stroke-width="4.26667" stroke-linecap="round" stroke-linejoin="round"/>
<path d="M114.267 51.2C115.348 59.4774 98.48 72.1636 91.5111 76.8C82.9778 82.4889 83.4898 89.1449 77.2889 88.1778C74.325 85.504 81.2995 79.5307 77.2889 79.6445C74.4444 79.6445 77.8293 83.1431 74.4444 85.3334C71.6 85.3334 63.0581 88.1778 63.0667 73.9556C63.0667 68.2667 80.1333 39.8222 80.1333 39.8222C80.1333 39.8222 85.5093 34.4178 85.8222 29.8667C83.7458 27.0393 84.4 24.1778 84.4 21.3334C87.2444 18.4889 92.9333 28.4445 92.9333 28.4445H98.6222C98.6222 28.4445 100.841 22.7783 105.733 19.9111C108.578 19.9111 108.578 28.4445 108.578 28.4445" fill="white"/>
<path d="M114.267 51.2C115.348 59.4774 98.48 72.1636 91.5111 76.8C82.9778 82.4889 83.4898 89.1449 77.2889 88.1778C74.325 85.504 81.2995 79.5307 77.2889 79.6445C74.4444 79.6445 77.8293 83.1431 74.4444 85.3334C71.6 85.3334 63.0581 88.1778 63.0667 73.9556C63.0667 68.2667 80.1333 39.8222 80.1333 39.8222C80.1333 39.8222 85.5093 34.4178 85.8222 29.8667C83.7458 27.0393 84.4 24.1778 84.4 21.3334C87.2444 18.4889 92.9333 28.4445 92.9333 28.4445H98.6222C98.6222 28.4445 100.841 22.7783 105.733 19.9111C108.578 19.9111 108.578 28.4445 108.578 28.4445" stroke="black" stroke-width="4.26667" stroke-linecap="round" stroke-linejoin="round"/>
<path d="M73.0222 72.5334C73.0222 72.9106 72.8723 73.2723 72.6056 73.539C72.3389 73.8057 71.9772 73.9556 71.6 73.9556C71.2228 73.9556 70.861 73.8057 70.5943 73.539C70.3276 73.2723 70.1777 72.9106 70.1777 72.5334C70.1777 72.1562 70.3276 71.7944 70.5943 71.5277C70.861 71.261 71.2228 71.1111 71.6 71.1111C71.9772 71.1111 72.3389 71.261 72.6056 71.5277C72.8723 71.7944 73.0222 72.1562 73.0222 72.5334Z" fill="black" stroke="black" stroke-width="4.26667" stroke-linejoin="round"/>
<path d="M89.3777 40.3911C89.5398 40.4841 89.6452 40.6718 89.6877 40.9435C89.7303 41.2153 89.7092 41.5657 89.6258 41.9748C89.5423 42.3839 89.398 42.8437 89.2012 43.3279C89.0044 43.8121 88.759 44.3113 88.4788 44.7969C88.1987 45.2825 87.8893 45.745 87.5685 46.1581C87.2476 46.5711 86.9215 46.9266 86.6088 47.2042C86.296 47.4819 86.0028 47.6762 85.7458 47.7761C85.4889 47.8761 85.2732 47.8797 85.1111 47.7867C84.949 47.6937 84.8436 47.506 84.8011 47.2343C84.7585 46.9626 84.7796 46.6122 84.863 46.203C84.9465 45.7939 85.0908 45.3341 85.2876 44.8499C85.4843 44.3657 85.7298 43.8666 86.01 43.381C86.2901 42.8954 86.5995 42.4328 86.9203 42.0198C87.2412 41.6067 87.5673 41.2512 87.88 40.9736C88.1927 40.696 88.486 40.5016 88.7429 40.4017C88.9999 40.3018 89.2156 40.2982 89.3777 40.3911Z" fill="black" stroke="black" stroke-width="4.26667" stroke-linejoin="round"/>
</svg>
