<svg width="175" height="128" viewBox="0 0 175 128" fill="none" xmlns="http://www.w3.org/2000/svg">
<path d="M31.2888 39.8222V25.6H42.6666V31.2889H56.8888V25.6H71.111V31.2889H85.3333V25.6H96.711V39.8222L88.1777 48.3555V83.9111L93.8666 91.0222V102.4H34.1333V91.0222L39.8222 83.9111V48.3555L31.2888 39.8222Z" fill="white" stroke="black" stroke-width="4.26667" stroke-linejoin="round"/>
<path d="M25.6 110.933H102.4V102.4H25.6V110.933Z" fill="white" stroke="black" stroke-width="4.26667" stroke-linejoin="round"/>
<path d="M31.2889 39.8222H96.7112" stroke="black" stroke-width="3.41333" stroke-linecap="round"/>
<path d="M39.8223 48.3555H88.1778" stroke="black" stroke-width="2.27556" stroke-linecap="round"/>
<path d="M39.8223 83.9111H88.1778" stroke="black" stroke-width="2.27556" stroke-linecap="round"/>
<path d="M34.1334 91.0222H93.8668" stroke="black" stroke-width="3.41333" stroke-linecap="round"/>
<path d="M78.2888 39.8222V25.6H89.6666V31.2889H103.889V25.6H118.111V31.2889H132.333V25.6H143.711V39.8222L135.178 48.3555V83.9111L140.867 91.0222V102.4H81.1333V91.0222L86.8222 83.9111V48.3555L78.2888 39.8222Z" fill="white" stroke="black" stroke-width="4.26667" stroke-linejoin="round"/>
<path d="M72.6 110.933H149.4V102.4H72.6V110.933Z" fill="white" stroke="black" stroke-width="4.26667" stroke-linejoin="round"/>
<path d="M78.2889 39.8222H143.711" stroke="black" stroke-width="3.41333" stroke-linecap="round"/>
<path d="M86.8223 48.3555H135.178" stroke="black" stroke-width="2.27556" stroke-linecap="round"/>
<path d="M86.8223 83.9111H135.178" stroke="black" stroke-width="2.27556" stroke-linecap="round"/>
<path d="M81.1334 91.0222H140.867" stroke="black" stroke-width="3.41333" stroke-linecap="round"/>
</svg>
