<svg width="172" height="128" viewBox="0 0 172 128" fill="none" xmlns="http://www.w3.org/2000/svg">
<g clip-path="url(#clip0_0_1)">
<path d="M64 29.8667C67.9274 29.8667 71.1111 26.6829 71.1111 22.7556C71.1111 18.8282 67.9274 15.6444 64 15.6444C60.0727 15.6444 56.8889 18.8282 56.8889 22.7556C56.8889 26.6829 60.0727 29.8667 64 29.8667Z" fill="black"/>
<path d="M64 29.8667C67.9274 29.8667 71.1111 26.6829 71.1111 22.7556C71.1111 18.8282 67.9274 15.6444 64 15.6444C60.0727 15.6444 56.8889 18.8282 56.8889 22.7556C56.8889 26.6829 60.0727 29.8667 64 29.8667Z" stroke="black" stroke-width="4.26667" stroke-linejoin="round"/>
<path d="M64 29.8667C67.9274 29.8667 71.1111 26.6829 71.1111 22.7556C71.1111 18.8282 67.9274 15.6444 64 15.6444C60.0727 15.6444 56.8889 18.8282 56.8889 22.7556C56.8889 26.6829 60.0727 29.8667 64 29.8667Z" stroke="white" stroke-width="4.26667" stroke-linejoin="round"/>
<path d="M42.6666 91.0222C49.7777 98.1333 78.2222 98.1333 85.3333 91.0222C86.7555 86.7556 85.3333 85.3333 85.3333 85.3333C85.3333 78.2222 78.2222 73.9556 78.2222 73.9556C93.8666 69.6889 95.2888 41.2444 63.9999 29.8667C32.711 41.2444 34.1333 69.6889 49.7777 73.9556C49.7777 73.9556 42.6666 78.2222 42.6666 85.3333C42.6666 85.3333 41.2444 86.7556 42.6666 91.0222Z" fill="black"/>
<path d="M42.6666 91.0222C49.7777 98.1333 78.2222 98.1333 85.3333 91.0222C86.7555 86.7556 85.3333 85.3333 85.3333 85.3333C85.3333 78.2222 78.2222 73.9556 78.2222 73.9556C93.8666 69.6889 95.2888 41.2444 63.9999 29.8667C32.711 41.2444 34.1333 69.6889 49.7777 73.9556C49.7777 73.9556 42.6666 78.2222 42.6666 85.3333C42.6666 85.3333 41.2444 86.7556 42.6666 91.0222Z" stroke="black" stroke-width="4.26667" stroke-linejoin="round"/>
<path d="M42.6666 91.0222C49.7777 98.1333 78.2222 98.1333 85.3333 91.0222C86.7555 86.7556 85.3333 85.3333 85.3333 85.3333C85.3333 78.2222 78.2222 73.9556 78.2222 73.9556C93.8666 69.6889 95.2888 41.2444 63.9999 29.8667C32.711 41.2444 34.1333 69.6889 49.7777 73.9556C49.7777 73.9556 42.6666 78.2222 42.6666 85.3333C42.6666 85.3333 41.2444 86.7556 42.6666 91.0222Z" stroke="white" stroke-width="4.26667" stroke-linejoin="round"/>
<path d="M25.6 102.4C35.2427 99.6409 54.3573 103.623 64 96.7111C73.6427 103.623 92.7573 99.6409 102.4 102.4C102.4 102.4 107.093 103.936 110.933 108.089C108.999 110.848 106.24 110.905 102.4 109.511C92.7573 106.752 73.6427 110.82 64 106.667C54.3573 110.82 35.2427 106.752 25.6 109.511C21.7486 110.905 18.9923 110.848 17.0667 108.089C20.918 102.571 25.6 102.4 25.6 102.4Z" fill="black"/>
<path d="M25.6 102.4C35.2427 99.6409 54.3573 103.623 64 96.7111C73.6427 103.623 92.7573 99.6409 102.4 102.4C102.4 102.4 107.093 103.936 110.933 108.089C108.999 110.848 106.24 110.905 102.4 109.511C92.7573 106.752 73.6427 110.82 64 106.667C54.3573 110.82 35.2427 106.752 25.6 109.511C21.7486 110.905 18.9923 110.848 17.0667 108.089C20.918 102.571 25.6 102.4 25.6 102.4Z" stroke="black" stroke-width="4.26667" stroke-linejoin="round"/>
<path d="M25.6 102.4C35.2427 99.6409 54.3573 103.623 64 96.7111C73.6427 103.623 92.7573 99.6409 102.4 102.4C102.4 102.4 107.093 103.936 110.933 108.089C108.999 110.848 106.24 110.905 102.4 109.511C92.7573 106.752 73.6427 110.82 64 106.667C54.3573 110.82 35.2427 106.752 25.6 109.511C21.7486 110.905 18.9923 110.848 17.0667 108.089C20.918 102.571 25.6 102.4 25.6 102.4Z" stroke="white" stroke-width="4.26667" stroke-linejoin="round"/>
<path d="M49.7777 73.9555H78.2222" stroke="white" stroke-width="4.26667" stroke-linecap="round"/>
<path d="M42.6666 85.3333H85.3333" stroke="white" stroke-width="4.26667" stroke-linecap="round"/>
<path d="M63.9999 42.6667V62.5778M56.8888 49.7778H71.111" stroke="white" stroke-width="4.26667" stroke-linecap="round"/>
<path d="M64 29.8667C67.9274 29.8667 71.1111 26.6829 71.1111 22.7556C71.1111 18.8282 67.9274 15.6444 64 15.6444C60.0727 15.6444 56.8889 18.8282 56.8889 22.7556C56.8889 26.6829 60.0727 29.8667 64 29.8667Z" fill="black" stroke="black" stroke-width="3.27" stroke-linejoin="round"/>
<path d="M42.6666 91.0222C49.7777 98.1333 78.2222 98.1333 85.3333 91.0222C86.7555 86.7556 85.3333 85.3333 85.3333 85.3333C85.3333 78.2222 78.2222 73.9556 78.2222 73.9556C93.8666 69.6889 95.2888 41.2444 63.9999 29.8667C32.711 41.2444 34.1333 69.6889 49.7777 73.9556C49.7777 73.9556 42.6666 78.2222 42.6666 85.3333C42.6666 85.3333 41.2444 86.7556 42.6666 91.0222Z" fill="black" stroke="black" stroke-width="3.27" stroke-linejoin="round"/>
<path d="M25.6 102.4C35.2427 99.6409 54.3573 103.623 64 96.7111C73.6427 103.623 92.7573 99.6409 102.4 102.4C102.4 102.4 107.093 103.936 110.933 108.089C108.999 110.848 106.24 110.905 102.4 109.511C92.7573 106.752 73.6427 110.82 64 106.667C54.3573 110.82 35.2427 106.752 25.6 109.511C21.7486 110.905 18.9923 110.848 17.0667 108.089C20.918 102.571 25.6 102.4 25.6 102.4Z" fill="black" stroke="black" stroke-width="3.27" stroke-linejoin="round"/>
<path d="M49.7777 73.9555H78.2222" stroke="white" stroke-width="4.26667" stroke-linecap="round"/>
<path d="M42.6666 85.3333H85.3333" stroke="white" stroke-width="4.26667" stroke-linecap="round"/>
<path d="M63.9999 42.6667V62.5778M56.8888 49.7778H71.111" stroke="white" stroke-width="4.26667" stroke-linecap="round"/>
</g>
<g clip-path="url(#clip1_0_1)">
<path d="M108 29.8667C111.927 29.8667 115.111 26.6829 115.111 22.7556C115.111 18.8282 111.927 15.6444 108 15.6444C104.073 15.6444 100.889 18.8282 100.889 22.7556C100.889 26.6829 104.073 29.8667 108 29.8667Z" fill="black"/>
<path d="M108 29.8667C111.927 29.8667 115.111 26.6829 115.111 22.7556C115.111 18.8282 111.927 15.6444 108 15.6444C104.073 15.6444 100.889 18.8282 100.889 22.7556C100.889 26.6829 104.073 29.8667 108 29.8667Z" stroke="black" stroke-width="4.26667" stroke-linejoin="round"/>
<path d="M108 29.8667C111.927 29.8667 115.111 26.6829 115.111 22.7556C115.111 18.8282 111.927 15.6444 108 15.6444C104.073 15.6444 100.889 18.8282 100.889 22.7556C100.889 26.6829 104.073 29.8667 108 29.8667Z" stroke="white" stroke-width="4.26667" stroke-linejoin="round"/>
<path d="M86.6666 91.0222C93.7777 98.1333 122.222 98.1333 129.333 91.0222C130.755 86.7556 129.333 85.3333 129.333 85.3333C129.333 78.2222 122.222 73.9556 122.222 73.9556C137.867 69.6889 139.289 41.2444 108 29.8667C76.711 41.2444 78.1333 69.6889 93.7777 73.9556C93.7777 73.9556 86.6666 78.2222 86.6666 85.3333C86.6666 85.3333 85.2444 86.7556 86.6666 91.0222Z" fill="black"/>
<path d="M86.6666 91.0222C93.7777 98.1333 122.222 98.1333 129.333 91.0222C130.755 86.7556 129.333 85.3333 129.333 85.3333C129.333 78.2222 122.222 73.9556 122.222 73.9556C137.867 69.6889 139.289 41.2444 108 29.8667C76.711 41.2444 78.1333 69.6889 93.7777 73.9556C93.7777 73.9556 86.6666 78.2222 86.6666 85.3333C86.6666 85.3333 85.2444 86.7556 86.6666 91.0222Z" stroke="black" stroke-width="4.26667" stroke-linejoin="round"/>
<path d="M86.6666 91.0222C93.7777 98.1333 122.222 98.1333 129.333 91.0222C130.755 86.7556 129.333 85.3333 129.333 85.3333C129.333 78.2222 122.222 73.9556 122.222 73.9556C137.867 69.6889 139.289 41.2444 108 29.8667C76.711 41.2444 78.1333 69.6889 93.7777 73.9556C93.7777 73.9556 86.6666 78.2222 86.6666 85.3333C86.6666 85.3333 85.2444 86.7556 86.6666 91.0222Z" stroke="white" stroke-width="4.26667" stroke-linejoin="round"/>
<path d="M69.6 102.4C79.2427 99.6409 98.3573 103.623 108 96.7111C117.643 103.623 136.757 99.6409 146.4 102.4C146.4 102.4 151.093 103.936 154.933 108.089C152.999 110.848 150.24 110.905 146.4 109.511C136.757 106.752 117.643 110.82 108 106.667C98.3573 110.82 79.2427 106.752 69.6 109.511C65.7486 110.905 62.9923 110.848 61.0667 108.089C64.918 102.571 69.6 102.4 69.6 102.4Z" fill="black"/>
<path d="M69.6 102.4C79.2427 99.6409 98.3573 103.623 108 96.7111C117.643 103.623 136.757 99.6409 146.4 102.4C146.4 102.4 151.093 103.936 154.933 108.089C152.999 110.848 150.24 110.905 146.4 109.511C136.757 106.752 117.643 110.82 108 106.667C98.3573 110.82 79.2427 106.752 69.6 109.511C65.7486 110.905 62.9923 110.848 61.0667 108.089C64.918 102.571 69.6 102.4 69.6 102.4Z" stroke="black" stroke-width="4.26667" stroke-linejoin="round"/>
<path d="M69.6 102.4C79.2427 99.6409 98.3573 103.623 108 96.7111C117.643 103.623 136.757 99.6409 146.4 102.4C146.4 102.4 151.093 103.936 154.933 108.089C152.999 110.848 150.24 110.905 146.4 109.511C136.757 106.752 117.643 110.82 108 106.667C98.3573 110.82 79.2427 106.752 69.6 109.511C65.7486 110.905 62.9923 110.848 61.0667 108.089C64.918 102.571 69.6 102.4 69.6 102.4Z" stroke="white" stroke-width="4.26667" stroke-linejoin="round"/>
<path d="M93.7777 73.9555H122.222" stroke="white" stroke-width="4.26667" stroke-linecap="round"/>
<path d="M86.6666 85.3333H129.333" stroke="white" stroke-width="4.26667" stroke-linecap="round"/>
<path d="M108 42.6667V62.5778M100.889 49.7778H115.111" stroke="white" stroke-width="4.26667" stroke-linecap="round"/>
<path d="M108 29.8667C111.927 29.8667 115.111 26.6829 115.111 22.7556C115.111 18.8282 111.927 15.6444 108 15.6444C104.073 15.6444 100.889 18.8282 100.889 22.7556C100.889 26.6829 104.073 29.8667 108 29.8667Z" fill="black" stroke="black" stroke-width="3.27" stroke-linejoin="round"/>
<path d="M86.6666 91.0222C93.7777 98.1333 122.222 98.1333 129.333 91.0222C130.755 86.7556 129.333 85.3333 129.333 85.3333C129.333 78.2222 122.222 73.9556 122.222 73.9556C137.867 69.6889 139.289 41.2444 108 29.8667C76.711 41.2444 78.1333 69.6889 93.7777 73.9556C93.7777 73.9556 86.6666 78.2222 86.6666 85.3333C86.6666 85.3333 85.2444 86.7556 86.6666 91.0222Z" fill="black" stroke="black" stroke-width="3.27" stroke-linejoin="round"/>
<path d="M69.6 102.4C79.2427 99.6409 98.3573 103.623 108 96.7111C117.643 103.623 136.757 99.6409 146.4 102.4C146.4 102.4 151.093 103.936 154.933 108.089C152.999 110.848 150.24 110.905 146.4 109.511C136.757 106.752 117.643 110.82 108 106.667C98.3573 110.82 79.2427 106.752 69.6 109.511C65.7486 110.905 62.9923 110.848 61.0667 108.089C64.918 102.571 69.6 102.4 69.6 102.4Z" fill="black" stroke="black" stroke-width="3.27" stroke-linejoin="round"/>
<path d="M93.7777 73.9555H122.222" stroke="white" stroke-width="4.26667" stroke-linecap="round"/>
<path d="M86.6666 85.3333H129.333" stroke="white" stroke-width="4.26667" stroke-linecap="round"/>
<path d="M108 42.6667V62.5778M100.889 49.7778H115.111" stroke="white" stroke-width="4.26667" stroke-linecap="round"/>
</g>
<defs>
<clipPath id="clip0_0_1">
<rect width="128" height="128" fill="white"/>
</clipPath>
<clipPath id="clip1_0_1">
<rect width="128" height="128" fill="white" transform="translate(44)"/>
</clipPath>
</defs>
</svg>
