<svg width="173" height="128" viewBox="0 0 173 128" fill="none" xmlns="http://www.w3.org/2000/svg">
<path d="M62.5777 28.4445C92.4444 31.2889 109.511 51.2 108.089 110.933H42.6666C42.6666 85.3333 71.1111 92.4445 65.4222 51.2" fill="black"/>
<path d="M62.5777 28.4445C92.4444 31.2889 109.511 51.2 108.089 110.933H42.6666C42.6666 85.3333 71.1111 92.4445 65.4222 51.2" stroke="white" stroke-width="4.26667" stroke-linecap="round" stroke-linejoin="round"/>
<path d="M68.2667 51.2C69.3475 59.4774 52.48 72.1636 45.5111 76.8C36.9778 82.4889 37.4898 89.1449 31.2889 88.1778C28.325 85.504 35.2995 79.5307 31.2889 79.6445C28.4444 79.6445 31.8293 83.1431 28.4444 85.3334C25.6 85.3334 17.0581 88.1778 17.0667 73.9556C17.0667 68.2667 34.1333 39.8222 34.1333 39.8222C34.1333 39.8222 39.5093 34.4178 39.8222 29.8667C37.7458 27.0393 38.4 24.1778 38.4 21.3334C41.2444 18.4889 46.9333 28.4445 46.9333 28.4445H52.6222C52.6222 28.4445 54.8409 22.7783 59.7333 19.9111C62.5778 19.9111 62.5778 28.4445 62.5778 28.4445" fill="black"/>
<path d="M68.2667 51.2C69.3475 59.4774 52.48 72.1636 45.5111 76.8C36.9778 82.4889 37.4898 89.1449 31.2889 88.1778C28.325 85.504 35.2995 79.5307 31.2889 79.6445C28.4444 79.6445 31.8293 83.1431 28.4444 85.3334C25.6 85.3334 17.0581 88.1778 17.0667 73.9556C17.0667 68.2667 34.1333 39.8222 34.1333 39.8222C34.1333 39.8222 39.5093 34.4178 39.8222 29.8667C37.7458 27.0393 38.4 24.1778 38.4 21.3334C41.2444 18.4889 46.9333 28.4445 46.9333 28.4445H52.6222C52.6222 28.4445 54.8409 22.7783 59.7333 19.9111C62.5778 19.9111 62.5778 28.4445 62.5778 28.4445" stroke="white" stroke-width="4.26667" stroke-linecap="round" stroke-linejoin="round"/>
<path d="M69.831 29.5822L68.551 33.7067L69.9732 34.1333C78.9332 36.9778 86.0444 41.216 92.4444 53.3333C98.8444 65.4507 101.689 82.6596 100.267 110.933L100.124 112.356H106.524L106.667 110.933C108.089 82.3182 104.163 63.0044 97.4221 50.2329C90.6808 37.4613 80.9528 31.3458 71.2817 29.8667L69.831 29.5822Z" fill="white"/>
<path d="M27.0222 72.5333C27.0222 72.9105 26.8723 73.2723 26.6056 73.539C26.3389 73.8057 25.9772 73.9556 25.6 73.9556C25.2228 73.9556 24.861 73.8057 24.5943 73.539C24.3276 73.2723 24.1777 72.9105 24.1777 72.5333C24.1777 72.1561 24.3276 71.7944 24.5943 71.5277C24.861 71.261 25.2228 71.1111 25.6 71.1111C25.9772 71.1111 26.3389 71.261 26.6056 71.5277C26.8723 71.7944 27.0222 72.1561 27.0222 72.5333Z" fill="white" stroke="white" stroke-width="4.26667" stroke-linejoin="round"/>
<path d="M43.3777 40.3911C43.5398 40.4841 43.6452 40.6718 43.6877 40.9435C43.7303 41.2152 43.7092 41.5656 43.6258 41.9748C43.5423 42.3839 43.398 42.8437 43.2012 43.3279C43.0044 43.8121 42.759 44.3112 42.4788 44.7968C42.1987 45.2824 41.8893 45.745 41.5685 46.158C41.2476 46.5711 40.9215 46.9266 40.6088 47.2042C40.296 47.4818 40.0028 47.6762 39.7458 47.7761C39.4889 47.876 39.2732 47.8796 39.1111 47.7867C38.949 47.6937 38.8436 47.506 38.8011 47.2343C38.7585 46.9625 38.7796 46.6121 38.863 46.203C38.9465 45.7939 39.0908 45.3341 39.2876 44.8499C39.4843 44.3657 39.7298 43.8665 40.01 43.3809C40.2901 42.8953 40.5995 42.4328 40.9203 42.0197C41.2412 41.6067 41.5673 41.2512 41.88 40.9736C42.1927 40.6959 42.486 40.5016 42.7429 40.4017C42.9999 40.3017 43.2156 40.2981 43.3777 40.3911Z" fill="white" stroke="white" stroke-width="4.26667" stroke-linejoin="round"/>
<path d="M62.5777 28.4445C92.4444 31.2889 109.511 51.2 108.089 110.933H42.6666C42.6666 85.3333 71.1111 92.4445 65.4222 51.2" fill="black"/>
<path d="M62.5777 28.4445C92.4444 31.2889 109.511 51.2 108.089 110.933H42.6666C42.6666 85.3333 71.1111 92.4445 65.4222 51.2" stroke="black" stroke-width="3.27" stroke-linecap="round" stroke-linejoin="round"/>
<path d="M68.2667 51.2C69.3475 59.4774 52.48 72.1636 45.5111 76.8C36.9778 82.4889 37.4898 89.1449 31.2889 88.1778C28.325 85.504 35.2995 79.5307 31.2889 79.6445C28.4444 79.6445 31.8293 83.1431 28.4444 85.3334C25.6 85.3334 17.0581 88.1778 17.0667 73.9556C17.0667 68.2667 34.1333 39.8222 34.1333 39.8222C34.1333 39.8222 39.5093 34.4178 39.8222 29.8667C37.7458 27.0393 38.4 24.1778 38.4 21.3334C41.2444 18.4889 46.9333 28.4445 46.9333 28.4445H52.6222C52.6222 28.4445 54.8409 22.7783 59.7333 19.9111C62.5778 19.9111 62.5778 28.4445 62.5778 28.4445" fill="black"/>
<path d="M68.2667 51.2C69.3475 59.4774 52.48 72.1636 45.5111 76.8C36.9778 82.4889 37.4898 89.1449 31.2889 88.1778C28.325 85.504 35.2995 79.5307 31.2889 79.6445C28.4444 79.6445 31.8293 83.1431 28.4444 85.3334C25.6 85.3334 17.0581 88.1778 17.0667 73.9556C17.0667 68.2667 34.1333 39.8222 34.1333 39.8222C34.1333 39.8222 39.5093 34.4178 39.8222 29.8667C37.7458 27.0393 38.4 24.1778 38.4 21.3334C41.2444 18.4889 46.9333 28.4445 46.9333 28.4445H52.6222C52.6222 28.4445 54.8409 22.7783 59.7333 19.9111C62.5778 19.9111 62.5778 28.4445 62.5778 28.4445" stroke="black" stroke-width="3.27" stroke-linecap="round" stroke-linejoin="round"/>
<path d="M69.831 29.5822L68.551 33.7067L69.9732 34.1333C78.9332 36.9778 86.0444 41.216 92.4444 53.3333C98.8444 65.4507 101.689 82.6596 100.267 110.933L100.124 112.356H106.524L106.667 110.933C108.089 82.3182 104.163 63.0044 97.4221 50.2329C90.6808 37.4613 80.9528 31.3458 71.2817 29.8667L69.831 29.5822Z" fill="white"/>
<path d="M27.0222 72.5333C27.0222 72.9105 26.8723 73.2723 26.6056 73.539C26.3389 73.8057 25.9772 73.9556 25.6 73.9556C25.2228 73.9556 24.861 73.8057 24.5943 73.539C24.3276 73.2723 24.1777 72.9105 24.1777 72.5333C24.1777 72.1561 24.3276 71.7944 24.5943 71.5277C24.861 71.261 25.2228 71.1111 25.6 71.1111C25.9772 71.1111 26.3389 71.261 26.6056 71.5277C26.8723 71.7944 27.0222 72.1561 27.0222 72.5333Z" fill="white" stroke="white" stroke-width="4.26667" stroke-linejoin="round"/>
<path d="M43.3777 40.3911C43.5398 40.4841 43.6452 40.6718 43.6877 40.9435C43.7303 41.2152 43.7092 41.5656 43.6258 41.9748C43.5423 42.3839 43.398 42.8437 43.2012 43.3279C43.0044 43.8121 42.759 44.3112 42.4788 44.7968C42.1987 45.2824 41.8893 45.745 41.5685 46.158C41.2476 46.5711 40.9215 46.9266 40.6088 47.2042C40.296 47.4818 40.0028 47.6762 39.7458 47.7761C39.4889 47.876 39.2732 47.8796 39.1111 47.7867C38.949 47.6937 38.8436 47.506 38.8011 47.2343C38.7585 46.9625 38.7796 46.6121 38.863 46.203C38.9465 45.7939 39.0908 45.3341 39.2876 44.8499C39.4843 44.3657 39.7298 43.8665 40.01 43.3809C40.2901 42.8953 40.5995 42.4328 40.9203 42.0197C41.2412 41.6067 41.5673 41.2512 41.88 40.9736C42.1927 40.6959 42.486 40.5016 42.7429 40.4017C42.9999 40.3017 43.2156 40.2981 43.3777 40.3911Z" fill="white" stroke="white" stroke-width="4.26667" stroke-linejoin="round"/>
<path d="M107.578 28.4445C137.444 31.2889 154.511 51.2 153.089 110.933H87.6666C87.6666 85.3333 116.111 92.4445 110.422 51.2" fill="black"/>
<path d="M107.578 28.4445C137.444 31.2889 154.511 51.2 153.089 110.933H87.6666C87.6666 85.3333 116.111 92.4445 110.422 51.2" stroke="white" stroke-width="4.26667" stroke-linecap="round" stroke-linejoin="round"/>
<path d="M113.267 51.2C114.348 59.4774 97.48 72.1636 90.5111 76.8C81.9778 82.4889 82.4898 89.1449 76.2889 88.1778C73.325 85.504 80.2995 79.5307 76.2889 79.6445C73.4444 79.6445 76.8293 83.1431 73.4444 85.3334C70.6 85.3334 62.0581 88.1778 62.0667 73.9556C62.0667 68.2667 79.1333 39.8222 79.1333 39.8222C79.1333 39.8222 84.5093 34.4178 84.8222 29.8667C82.7458 27.0393 83.4 24.1778 83.4 21.3334C86.2444 18.4889 91.9333 28.4445 91.9333 28.4445H97.6222C97.6222 28.4445 99.8409 22.7783 104.733 19.9111C107.578 19.9111 107.578 28.4445 107.578 28.4445" fill="black"/>
<path d="M113.267 51.2C114.348 59.4774 97.48 72.1636 90.5111 76.8C81.9778 82.4889 82.4898 89.1449 76.2889 88.1778C73.325 85.504 80.2995 79.5307 76.2889 79.6445C73.4444 79.6445 76.8293 83.1431 73.4444 85.3334C70.6 85.3334 62.0581 88.1778 62.0667 73.9556C62.0667 68.2667 79.1333 39.8222 79.1333 39.8222C79.1333 39.8222 84.5093 34.4178 84.8222 29.8667C82.7458 27.0393 83.4 24.1778 83.4 21.3334C86.2444 18.4889 91.9333 28.4445 91.9333 28.4445H97.6222C97.6222 28.4445 99.8409 22.7783 104.733 19.9111C107.578 19.9111 107.578 28.4445 107.578 28.4445" stroke="white" stroke-width="4.26667" stroke-linecap="round" stroke-linejoin="round"/>
<path d="M114.831 29.5822L113.551 33.7067L114.973 34.1333C123.933 36.9778 131.044 41.216 137.444 53.3333C143.844 65.4507 146.689 82.6596 145.267 110.933L145.124 112.356H151.524L151.667 110.933C153.089 82.3182 149.163 63.0044 142.422 50.2329C135.681 37.4613 125.953 31.3458 116.282 29.8667L114.831 29.5822Z" fill="white"/>
<path d="M72.0222 72.5333C72.0222 72.9105 71.8723 73.2723 71.6056 73.539C71.3389 73.8057 70.9772 73.9556 70.6 73.9556C70.2228 73.9556 69.861 73.8057 69.5943 73.539C69.3276 73.2723 69.1777 72.9105 69.1777 72.5333C69.1777 72.1561 69.3276 71.7944 69.5943 71.5277C69.861 71.261 70.2228 71.1111 70.6 71.1111C70.9772 71.1111 71.3389 71.261 71.6056 71.5277C71.8723 71.7944 72.0222 72.1561 72.0222 72.5333Z" fill="white" stroke="white" stroke-width="4.26667" stroke-linejoin="round"/>
<path d="M88.3777 40.3911C88.5398 40.4841 88.6452 40.6718 88.6877 40.9435C88.7303 41.2152 88.7092 41.5656 88.6258 41.9748C88.5423 42.3839 88.398 42.8437 88.2012 43.3279C88.0044 43.8121 87.759 44.3112 87.4788 44.7968C87.1987 45.2824 86.8893 45.745 86.5685 46.158C86.2476 46.5711 85.9215 46.9266 85.6088 47.2042C85.296 47.4818 85.0028 47.6762 84.7458 47.7761C84.4889 47.876 84.2732 47.8796 84.1111 47.7867C83.949 47.6937 83.8436 47.506 83.8011 47.2343C83.7585 46.9625 83.7796 46.6121 83.863 46.203C83.9465 45.7939 84.0908 45.3341 84.2876 44.8499C84.4843 44.3657 84.7298 43.8665 85.01 43.3809C85.2901 42.8953 85.5995 42.4328 85.9203 42.0197C86.2412 41.6067 86.5673 41.2512 86.88 40.9736C87.1927 40.6959 87.486 40.5016 87.7429 40.4017C87.9999 40.3017 88.2156 40.2981 88.3777 40.3911Z" fill="white" stroke="white" stroke-width="4.26667" stroke-linejoin="round"/>
<path d="M107.578 28.4445C137.444 31.2889 154.511 51.2 153.089 110.933H87.6666C87.6666 85.3333 116.111 92.4445 110.422 51.2" fill="black"/>
<path d="M107.578 28.4445C137.444 31.2889 154.511 51.2 153.089 110.933H87.6666C87.6666 85.3333 116.111 92.4445 110.422 51.2" stroke="black" stroke-width="3.27" stroke-linecap="round" stroke-linejoin="round"/>
<path d="M113.267 51.2C114.348 59.4774 97.48 72.1636 90.5111 76.8C81.9778 82.4889 82.4898 89.1449 76.2889 88.1778C73.325 85.504 80.2995 79.5307 76.2889 79.6445C73.4444 79.6445 76.8293 83.1431 73.4444 85.3334C70.6 85.3334 62.0581 88.1778 62.0667 73.9556C62.0667 68.2667 79.1333 39.8222 79.1333 39.8222C79.1333 39.8222 84.5093 34.4178 84.8222 29.8667C82.7458 27.0393 83.4 24.1778 83.4 21.3334C86.2444 18.4889 91.9333 28.4445 91.9333 28.4445H97.6222C97.6222 28.4445 99.8409 22.7783 104.733 19.9111C107.578 19.9111 107.578 28.4445 107.578 28.4445" fill="black"/>
<path d="M113.267 51.2C114.348 59.4774 97.48 72.1636 90.5111 76.8C81.9778 82.4889 82.4898 89.1449 76.2889 88.1778C73.325 85.504 80.2995 79.5307 76.2889 79.6445C73.4444 79.6445 76.8293 83.1431 73.4444 85.3334C70.6 85.3334 62.0581 88.1778 62.0667 73.9556C62.0667 68.2667 79.1333 39.8222 79.1333 39.8222C79.1333 39.8222 84.5093 34.4178 84.8222 29.8667C82.7458 27.0393 83.4 24.1778 83.4 21.3334C86.2444 18.4889 91.9333 28.4445 91.9333 28.4445H97.6222C97.6222 28.4445 99.8409 22.7783 104.733 19.9111C107.578 19.9111 107.578 28.4445 107.578 28.4445" stroke="black" stroke-width="3.27" stroke-linecap="round" stroke-linejoin="round"/>
<path d="M114.831 29.5822L113.551 33.7067L114.973 34.1333C123.933 36.9778 131.044 41.216 137.444 53.3333C143.844 65.4507 146.689 82.6596 145.267 110.933L145.124 112.356H151.524L151.667 110.933C153.089 82.3182 149.163 63.0044 142.422 50.2329C135.681 37.4613 125.953 31.3458 116.282 29.8667L114.831 29.5822Z" fill="white"/>
<path d="M72.0222 72.5333C72.0222 72.9105 71.8723 73.2723 71.6056 73.539C71.3389 73.8057 70.9772 73.9556 70.6 73.9556C70.2228 73.9556 69.861 73.8057 69.5943 73.539C69.3276 73.2723 69.1777 72.9105 69.1777 72.5333C69.1777 72.1561 69.3276 71.7944 69.5943 71.5277C69.861 71.261 70.2228 71.1111 70.6 71.1111C70.9772 71.1111 71.3389 71.261 71.6056 71.5277C71.8723 71.7944 72.0222 72.1561 72.0222 72.5333Z" fill="white" stroke="white" stroke-width="4.26667" stroke-linejoin="round"/>
<path d="M88.3777 40.3911C88.5398 40.4841 88.6452 40.6718 88.6877 40.9435C88.7303 41.2152 88.7092 41.5656 88.6258 41.9748C88.5423 42.3839 88.398 42.8437 88.2012 43.3279C88.0044 43.8121 87.759 44.3112 87.4788 44.7968C87.1987 45.2824 86.8893 45.745 86.5685 46.158C86.2476 46.5711 85.9215 46.9266 85.6088 47.2042C85.296 47.4818 85.0028 47.6762 84.7458 47.7761C84.4889 47.876 84.2732 47.8796 84.1111 47.7867C83.949 47.6937 83.8436 47.506 83.8011 47.2343C83.7585 46.9625 83.7796 46.6121 83.863 46.203C83.9465 45.7939 84.0908 45.3341 84.2876 44.8499C84.4843 44.3657 84.7298 43.8665 85.01 43.3809C85.2901 42.8953 85.5995 42.4328 85.9203 42.0197C86.2412 41.6067 86.5673 41.2512 86.88 40.9736C87.1927 40.6959 87.486 40.5016 87.7429 40.4017C87.9999 40.3017 88.2156 40.2981 88.3777 40.3911Z" fill="white" stroke="white" stroke-width="4.26667" stroke-linejoin="round"/>
</svg>
