<svg width="152" height="92" viewBox="0 0 152 92" fill="none" xmlns="http://www.w3.org/2000/svg">
<path d="M35.7111 3C29.4249 3 24.3333 8.09156 24.3333 14.3778C24.3333 16.9093 25.1582 19.2418 26.552 21.1476C21.0053 24.3333 17.2222 30.2782 17.2222 37.1333C17.2222 42.9076 19.896 48.056 24.0773 51.4409C15.544 54.456 3 67.2276 3 89.7556H68.4222C68.4222 67.2276 55.8782 54.456 47.3449 51.4409C51.5262 48.056 54.2 42.9076 54.2 37.1333C54.2 30.2782 50.4169 24.3333 44.8702 21.1476C46.264 19.2418 47.0889 16.9093 47.0889 14.3778C47.0889 8.09156 41.9973 3 35.7111 3Z" fill="white" stroke="black" stroke-width="4.26667" stroke-linecap="round"/>
<path d="M76.7111 3C70.4249 3 65.3333 8.09156 65.3333 14.3778C65.3333 16.9093 66.1582 19.2418 67.552 21.1476C62.0053 24.3333 58.2222 30.2782 58.2222 37.1333C58.2222 42.9076 60.896 48.056 65.0773 51.4409C56.544 54.456 44 67.2276 44 89.7556H109.422C109.422 67.2276 96.8782 54.456 88.3449 51.4409C92.5262 48.056 95.2 42.9076 95.2 37.1333C95.2 30.2782 91.4169 24.3333 85.8702 21.1476C87.264 19.2418 88.0889 16.9093 88.0889 14.3778C88.0889 8.09156 82.9973 3 76.7111 3Z" fill="white" stroke="black" stroke-width="4.26667" stroke-linecap="round"/>
<path d="M117.133 3C110.847 3 105.756 8.09156 105.756 14.3778C105.756 16.9093 106.58 19.2418 107.974 21.1476C102.428 24.3333 98.6445 30.2782 98.6445 37.1333C98.6445 42.9076 101.318 48.056 105.5 51.4409C96.9662 54.456 84.4222 67.2276 84.4222 89.7556H149.844C149.844 67.2276 137.3 54.456 128.767 51.4409C132.948 48.056 135.622 42.9076 135.622 37.1333C135.622 30.2782 131.839 24.3333 126.292 21.1476C127.686 19.2418 128.511 16.9093 128.511 14.3778C128.511 8.09156 123.42 3 117.133 3Z" fill="white" stroke="black" stroke-width="4.26667" stroke-linecap="round"/>
</svg>
