<svg width="304" height="92" viewBox="0 0 304 92" fill="none" xmlns="http://www.w3.org/2000/svg">
<path d="M35.7111 3C29.4249 3 24.3333 8.09156 24.3333 14.3778C24.3333 16.9093 25.1582 19.2418 26.552 21.1476C21.0053 24.3333 17.2222 30.2782 17.2222 37.1333C17.2222 42.9076 19.896 48.056 24.0773 51.4409C15.544 54.456 3 67.2276 3 89.7556H68.4222C68.4222 67.2276 55.8782 54.456 47.3449 51.4409C51.5262 48.056 54.2 42.9076 54.2 37.1333C54.2 30.2782 50.4169 24.3333 44.8702 21.1476C46.264 19.2418 47.0889 16.9093 47.0889 14.3778C47.0889 8.09156 41.9973 3 35.7111 3Z" fill="white" stroke="black" stroke-width="4.26667" stroke-linecap="round"/>
<path d="M76.7111 3C70.4249 3 65.3333 8.09156 65.3333 14.3778C65.3333 16.9093 66.1582 19.2418 67.552 21.1476C62.0053 24.3333 58.2222 30.2782 58.2222 37.1333C58.2222 42.9076 60.896 48.056 65.0773 51.4409C56.544 54.456 44 67.2276 44 89.7556H109.422C109.422 67.2276 96.8782 54.456 88.3449 51.4409C92.5262 48.056 95.2 42.9076 95.2 37.1333C95.2 30.2782 91.4169 24.3333 85.8702 21.1476C87.264 19.2418 88.0889 16.9093 88.0889 14.3778C88.0889 8.09156 82.9973 3 76.7111 3Z" fill="white" stroke="black" stroke-width="4.26667" stroke-linecap="round"/>
<path d="M117.133 3C110.847 3 105.756 8.09156 105.756 14.3778C105.756 16.9093 106.58 19.2418 107.974 21.1476C102.428 24.3333 98.6445 30.2782 98.6445 37.1333C98.6445 42.9076 101.318 48.056 105.5 51.4409C96.9662 54.456 84.4222 67.2276 84.4222 89.7556H149.844C149.844 67.2276 137.3 54.456 128.767 51.4409C132.948 48.056 135.622 42.9076 135.622 37.1333C135.622 30.2782 131.839 24.3333 126.292 21.1476C127.686 19.2418 128.511 16.9093 128.511 14.3778C128.511 8.09156 123.42 3 117.133 3Z" fill="white" stroke="black" stroke-width="4.26667" stroke-linecap="round"/>
<path d="M156.556 3C150.269 3 145.178 8.09156 145.178 14.3778C145.178 16.9093 146.003 19.2418 147.396 21.1476C141.85 24.3333 138.067 30.2782 138.067 37.1333C138.067 42.9076 140.74 48.056 144.922 51.4409C136.388 54.456 123.844 67.2276 123.844 89.7556H189.267C189.267 67.2276 176.723 54.456 168.189 51.4409C172.371 48.056 175.044 42.9076 175.044 37.1333C175.044 30.2782 171.261 24.3333 165.715 21.1476C167.108 19.2418 167.933 16.9093 167.933 14.3778C167.933 8.09156 162.842 3 156.556 3Z" fill="white" stroke="black" stroke-width="4.26667" stroke-linecap="round"/>
<path d="M194.711 3C188.425 3 183.333 8.09156 183.333 14.3778C183.333 16.9093 184.158 19.2418 185.552 21.1476C180.005 24.3333 176.222 30.2782 176.222 37.1333C176.222 42.9076 178.896 48.056 183.077 51.4409C174.544 54.456 162 67.2276 162 89.7556H227.422C227.422 67.2276 214.878 54.456 206.345 51.4409C210.526 48.056 213.2 42.9076 213.2 37.1333C213.2 30.2782 209.417 24.3333 203.87 21.1476C205.264 19.2418 206.089 16.9093 206.089 14.3778C206.089 8.09156 200.997 3 194.711 3Z" fill="white" stroke="black" stroke-width="4.26667" stroke-linecap="round"/>
<path d="M231.711 3C225.425 3 220.333 8.09156 220.333 14.3778C220.333 16.9093 221.158 19.2418 222.552 21.1476C217.005 24.3333 213.222 30.2782 213.222 37.1333C213.222 42.9076 215.896 48.056 220.077 51.4409C211.544 54.456 199 67.2276 199 89.7556H264.422C264.422 67.2276 251.878 54.456 243.345 51.4409C247.526 48.056 250.2 42.9076 250.2 37.1333C250.2 30.2782 246.417 24.3333 240.87 21.1476C242.264 19.2418 243.089 16.9093 243.089 14.3778C243.089 8.09156 237.997 3 231.711 3Z" fill="white" stroke="black" stroke-width="4.26667" stroke-linecap="round"/>
<path d="M269.133 3C262.847 3 257.756 8.09156 257.756 14.3778C257.756 16.9093 258.58 19.2418 259.974 21.1476C254.428 24.3333 250.644 30.2782 250.644 37.1333C250.644 42.9076 253.318 48.056 257.5 51.4409C248.966 54.456 236.422 67.2276 236.422 89.7556H301.844C301.844 67.2276 289.3 54.456 280.767 51.4409C284.948 48.056 287.622 42.9076 287.622 37.1333C287.622 30.2782 283.839 24.3333 278.292 21.1476C279.686 19.2418 280.511 16.9093 280.511 14.3778C280.511 8.09156 275.42 3 269.133 3Z" fill="white" stroke="black" stroke-width="4.26667" stroke-linecap="round"/>
</svg>
