<svg width="364" height="128" viewBox="0 0 364 128" fill="none" xmlns="http://www.w3.org/2000/svg">
<path d="M64.0001 25.6C57.7138 25.6 52.6223 30.6916 52.6223 36.9778C52.6223 39.5093 53.4472 41.8418 54.8409 43.7476C49.2943 46.9333 45.5112 52.8782 45.5112 59.7333C45.5112 65.5076 48.1849 70.656 52.3663 74.0409C43.8329 77.056 31.2889 89.8276 31.2889 112.356H96.7112C96.7112 89.8276 84.1672 77.056 75.6338 74.0409C79.8152 70.656 82.4889 65.5076 82.4889 59.7333C82.4889 52.8782 78.7058 46.9333 73.1592 43.7476C74.5529 41.8418 75.3778 39.5093 75.3778 36.9778C75.3778 30.6916 70.2863 25.6 64.0001 25.6Z" fill="black" stroke="white" stroke-linecap="round"/>
<path d="M97.7111 26C91.4249 26 86.3333 31.0916 86.3333 37.3778C86.3333 39.9093 87.1582 42.2418 88.552 44.1476C83.0053 47.3333 79.2222 53.2782 79.2222 60.1333C79.2222 65.9076 81.896 71.056 86.0773 74.4409C77.544 77.456 65 90.2276 65 112.756H130.422C130.422 90.2276 117.878 77.456 109.345 74.4409C113.526 71.056 116.2 65.9076 116.2 60.1333C116.2 53.2782 112.417 47.3333 106.87 44.1476C108.264 42.2418 109.089 39.9093 109.089 37.3778C109.089 31.0916 103.997 26 97.7111 26Z" fill="black" stroke="white" stroke-linecap="round"/>
<path d="M129.711 26C123.425 26 118.333 31.0916 118.333 37.3778C118.333 39.9093 119.158 42.2418 120.552 44.1476C115.005 47.3333 111.222 53.2782 111.222 60.1333C111.222 65.9076 113.896 71.056 118.077 74.4409C109.544 77.456 97 90.2276 97 112.756H162.422C162.422 90.2276 149.878 77.456 141.345 74.4409C145.526 71.056 148.2 65.9076 148.2 60.1333C148.2 53.2782 144.417 47.3333 138.87 44.1476C140.264 42.2418 141.089 39.9093 141.089 37.3778C141.089 31.0916 135.997 26 129.711 26Z" fill="black" stroke="white" stroke-linecap="round"/>
<path d="M161.711 26C155.425 26 150.333 31.0916 150.333 37.3778C150.333 39.9093 151.158 42.2418 152.552 44.1476C147.005 47.3333 143.222 53.2782 143.222 60.1333C143.222 65.9076 145.896 71.056 150.077 74.4409C141.544 77.456 129 90.2276 129 112.756H194.422C194.422 90.2276 181.878 77.456 173.345 74.4409C177.526 71.056 180.2 65.9076 180.2 60.1333C180.2 53.2782 176.417 47.3333 170.87 44.1476C172.264 42.2418 173.089 39.9093 173.089 37.3778C173.089 31.0916 167.997 26 161.711 26Z" fill="black" stroke="white" stroke-linecap="round"/>
<path d="M193.711 26C187.425 26 182.333 31.0916 182.333 37.3778C182.333 39.9093 183.158 42.2418 184.552 44.1476C179.005 47.3333 175.222 53.2782 175.222 60.1333C175.222 65.9076 177.896 71.056 182.077 74.4409C173.544 77.456 161 90.2276 161 112.756H226.422C226.422 90.2276 213.878 77.456 205.345 74.4409C209.526 71.056 212.2 65.9076 212.2 60.1333C212.2 53.2782 208.417 47.3333 202.87 44.1476C204.264 42.2418 205.089 39.9093 205.089 37.3778C205.089 31.0916 199.997 26 193.711 26Z" fill="black" stroke="white" stroke-linecap="round"/>
<path d="M225.711 26C219.425 26 214.333 31.0916 214.333 37.3778C214.333 39.9093 215.158 42.2418 216.552 44.1476C211.005 47.3333 207.222 53.2782 207.222 60.1333C207.222 65.9076 209.896 71.056 214.077 74.4409C205.544 77.456 193 90.2276 193 112.756H258.422C258.422 90.2276 245.878 77.456 237.345 74.4409C241.526 71.056 244.2 65.9076 244.2 60.1333C244.2 53.2782 240.417 47.3333 234.87 44.1476C236.264 42.2418 237.089 39.9093 237.089 37.3778C237.089 31.0916 231.997 26 225.711 26Z" fill="black" stroke="white" stroke-linecap="round"/>
<path d="M257.711 26C251.425 26 246.333 31.0916 246.333 37.3778C246.333 39.9093 247.158 42.2418 248.552 44.1476C243.005 47.3333 239.222 53.2782 239.222 60.1333C239.222 65.9076 241.896 71.056 246.077 74.4409C237.544 77.456 225 90.2276 225 112.756H290.422C290.422 90.2276 277.878 77.456 269.345 74.4409C273.526 71.056 276.2 65.9076 276.2 60.1333C276.2 53.2782 272.417 47.3333 266.87 44.1476C268.264 42.2418 269.089 39.9093 269.089 37.3778C269.089 31.0916 263.997 26 257.711 26Z" fill="black" stroke="white" stroke-linecap="round"/>
<path d="M289.711 26C283.425 26 278.333 31.0916 278.333 37.3778C278.333 39.9093 279.158 42.2418 280.552 44.1476C275.005 47.3333 271.222 53.2782 271.222 60.1333C271.222 65.9076 273.896 71.056 278.077 74.4409C269.544 77.456 257 90.2276 257 112.756H322.422C322.422 90.2276 309.878 77.456 301.345 74.4409C305.526 71.056 308.2 65.9076 308.2 60.1333C308.2 53.2782 304.417 47.3333 298.87 44.1476C300.264 42.2418 301.089 39.9093 301.089 37.3778C301.089 31.0916 295.997 26 289.711 26Z" fill="black" stroke="white" stroke-linecap="round"/>
</svg>
